<svg xmlns="http://www.w3.org/2000/svg" version="1.1" xmlns:xlink="http://www.w3.org/1999/xlink" xmlns:svgjs="http://svgjs.dev/svgjs" width="2000" height="590" viewBox="0 0 2000 590"><g transform="matrix(1,0,0,1,-1.2121212121212466,0.4587966197727269)"><svg viewBox="0 0 396 117" data-background-color="#dedede" preserveAspectRatio="xMidYMid meet" height="590" width="2000" xmlns="http://www.w3.org/2000/svg" xmlns:xlink="http://www.w3.org/1999/xlink"><g id="tight-bounds" transform="matrix(1,0,0,1,0.2400000000000091,-0.0909817025651023)"><svg viewBox="0 0 395.52 117.1819626334609" height="117.1819626334609" width="395.52"><g><svg viewBox="0 0 397.4975999999999 117.76787244662819" height="117.1819626334609" width="395.52"><g><rect width="397.4975999999999" height="3.3688351716564373" x="0" y="60.445430910717036" fill="#ffffff" opacity="1" stroke-width="0" stroke="transparent" fill-opacity="1" class="rect-o-0" data-fill-palette-color="primary" rx="1%" id="o-0" data-palette-color="#374151"></rect></g><g><rect width="397.4975999999999" height="3.3688351716564373" x="0" y="68.22373620234264" fill="#ffffff" opacity="1" stroke-width="0" stroke="transparent" fill-opacity="1" class="rect-o-1" data-fill-palette-color="primary" rx="1%" id="o-1" data-palette-color="#374151"></rect></g><g transform="matrix(1,0,0,1,0.9887999999999693,80.41151161393739)"><svg viewBox="0 0 395.52 37.35636083269082" height="37.35636083269082" width="395.52"><g id="textblocktransform"><svg viewBox="0 0 395.52 37.35636083269082" height="37.35636083269082" width="395.52" id="textblock"><g><svg viewBox="0 0 395.52 37.35636083269082" height="37.35636083269082" width="395.52"><g transform="matrix(1,0,0,1,0,0)"><svg width="395.52" viewBox="2.9000000953674316 -35.95000076293945 389.07000732421875 36.75" height="37.35636083269082" data-palette-color="#374151"><path d="M24.2-24.4L22.4-24.4Q22.25-26.8 21.25-28.95 20.25-31.1 18.35-32.45 16.45-33.8 13.5-33.8L13.5-33.8Q10.4-33.8 8.75-32.05 7.1-30.3 7.1-27.95L7.1-27.95Q7.1-25.85 8.3-24.43 9.5-23 11.43-21.93 13.35-20.85 15.5-19.85L15.5-19.85Q17.4-19 19.3-18.03 21.2-17.05 22.75-15.8 24.3-14.55 25.23-12.83 26.15-11.1 26.15-8.7L26.15-8.7Q26.15-5.95 24.78-3.8 23.4-1.65 20.8-0.43 18.2 0.8 14.45 0.8L14.45 0.8Q12.2 0.8 9.8 0.15 7.4-0.5 5.55-1.75L5.55-1.75 5.8 0.4 3.2 0.4 2.9-10.25 4.85-10.25Q5.1-5.85 7.9-3.58 10.7-1.3 14.65-1.3L14.65-1.3Q16.6-1.3 18.25-2.02 19.9-2.75 20.88-4.15 21.85-5.55 21.85-7.55L21.85-7.55Q21.85-9.8 20.65-11.3 19.45-12.8 17.55-13.9 15.65-15 13.5-16L13.5-16Q11.6-16.85 9.75-17.8 7.9-18.75 6.38-19.98 4.85-21.2 3.93-22.9 3-24.6 3-27L3-27Q3-28.3 3.45-29.8 3.9-31.3 5.03-32.68 6.15-34.05 8.13-34.93 10.1-35.8 13.15-35.8L13.15-35.8Q15.05-35.8 17.43-35.27 19.8-34.75 21.85-33.25L21.85-33.25 21.65-35.4 24.2-35.4 24.2-24.4ZM51.45 0.5L49.95 0.5Q47.75-4.5 45.5-9.47 43.25-14.45 41.1-19.55L41.1-19.55Q40.4-21.15 39.72-22.78 39.05-24.4 38.42-26.05 37.8-27.7 37.15-29.35L37.15-29.35Q37.15-28.8 37.12-28.25 37.1-27.7 37.1-27.15L37.1-27.15Q37.05-25.35 36.97-22.83 36.9-20.3 36.8-17.43 36.7-14.55 36.65-11.68 36.6-8.8 36.55-6.25L36.55-6.25Q36.5-5.15 36.47-4.05 36.45-2.95 36.35-2L36.35-2Q37.3-2.05 38.22-2.1 39.15-2.15 40.1-2.2L40.1-2.2 40.1 0 30.55 0 30.55-1.65Q32.1-1.7 32.82-2.33 33.55-2.95 33.75-4 33.95-5.05 34-6.25L34-6.25 34.95-29.05Q35-30.05 35.02-31.05 35.05-32.05 35.1-33L35.1-33Q34.2-32.95 33.3-32.93 32.4-32.9 31.5-32.85L31.5-32.85 31.5-35 39.15-35 47.75-15.15Q48.4-13.65 49.02-12.15 49.65-10.65 50.32-9.15 51-7.65 51.65-6.1L51.65-6.1 51.75-6.1Q52.3-7.45 53.05-9.33 53.8-11.2 54.3-12.55L54.3-12.55Q56.5-18.05 58.87-23.58 61.25-29.1 63.55-35L63.55-35 70.95-35 70.95-33.35Q69.7-33.4 68.9-32.88 68.1-32.35 67.75-31.15 67.4-29.95 67.5-27.9L67.5-27.9 68.8-5.15Q68.9-4.3 68.9-3.5 68.9-2.7 68.9-2.05L68.9-2.05Q69.8-2.1 70.72-2.13 71.65-2.15 72.55-2.2L72.55-2.2 72.55 0 61.35 0 61.35-1.65Q62.9-1.7 63.65-2.4 64.4-3.1 64.57-4.4 64.75-5.7 64.65-7.6L64.65-7.6 63.65-24.1Q63.6-24.9 63.55-25.7 63.5-26.5 63.45-27.3 63.4-28.1 63.35-28.9L63.35-28.9Q63.2-28.55 63.02-28.15 62.85-27.75 62.7-27.3L62.7-27.3 51.45 0.5ZM88.25-35L88.25-33.35Q86.4-33.3 85.67-32.5 84.95-31.7 84.87-30.35 84.8-29 84.8-27.2L84.8-27.2 84.8-5.95Q84.8-4.6 84.77-3.63 84.75-2.65 84.65-2L84.65-2Q85.55-2.05 86.45-2.1 87.34-2.15 88.25-2.2L88.25-2.2 88.25 0 77 0 77-1.65Q78.9-1.75 79.59-2.53 80.3-3.3 80.37-4.67 80.45-6.05 80.45-7.8L80.45-7.8 80.45-29.4Q80.45-30.4 80.5-31.33 80.55-32.25 80.59-33L80.59-33Q79.7-32.95 78.8-32.9 77.9-32.85 77-32.8L77-32.8 77-35 88.25-35ZM121.84-24.45L119.94-24.45Q119.89-27.4 119.34-29.35 118.79-31.3 117.42-32.27 116.04-33.25 113.44-33.2L113.44-33.2 109.19-33.2 109.14-5.95Q109.14-4.6 109.12-3.63 109.09-2.65 108.99-2L108.99-2Q110.04-2.05 111.07-2.1 112.09-2.15 113.14-2.2L113.14-2.2 113.14 0 101.39 0 101.39-1.65Q103.29-1.75 103.97-2.55 104.64-3.35 104.72-4.73 104.79-6.1 104.79-7.8L104.79-7.8 104.84-33.15 99.69-33.1Q96.54-33.1 95.24-31 93.94-28.9 93.94-24.45L93.94-24.45 92.09-24.45 92.39-35 121.54-35 121.84-24.45ZM151.64 0L138.89 0 138.89-1.65Q140.79-1.75 141.49-2.53 142.19-3.3 142.26-4.67 142.34-6.05 142.34-7.8L142.34-7.8 142.34-29.4Q142.34-30.4 142.39-31.33 142.44-32.25 142.49-33L142.49-33Q141.59-32.95 140.69-32.9 139.79-32.85 138.89-32.8L138.89-32.8 138.89-35 162.09-35 162.34-26.25 160.69-26.25Q160.69-29.2 159.74-30.73 158.79-32.25 157.24-32.77 155.69-33.3 153.79-33.25L153.79-33.25 150.14-33.15Q148.29-33.1 147.59-32.27 146.89-31.45 146.79-30.1 146.69-28.75 146.69-27L146.69-27 146.69-18.4 155.39-18.35 155.04-22.7 157.24-22.7 157.24-12.15 155.64-12.15Q155.64-14.4 155.01-15.35 154.39-16.3 153.09-16.5 151.79-16.7 149.69-16.6L149.69-16.6 146.69-16.45 146.69-5.95Q146.69-4.6 146.66-3.63 146.64-2.65 146.54-2L146.54-2Q147.39-2.05 148.24-2.08 149.09-2.1 149.94-2.15 150.79-2.2 151.64-2.2L151.64-2.2 151.64 0ZM185.34-12.95L183.69-12.95Q183.69-15.15 183.09-16.1 182.49-17.05 181.19-17.25 179.89-17.45 177.74-17.35L177.74-17.35 174.09-17.2 174.09-5.75Q174.09-4.4 174.06-3.45 174.04-2.5 173.94-1.85L173.94-1.85 183.49-2Q185.69-2.05 187.29-2.73 188.89-3.4 189.79-5.1 190.69-6.8 190.69-9.75L190.69-9.75 192.39-9.75 192.09 0 166.29 0 166.29-1.65Q168.19-1.75 168.89-2.53 169.59-3.3 169.66-4.67 169.74-6.05 169.74-7.8L169.74-7.8 169.74-29.4Q169.74-30.4 169.79-31.33 169.84-32.25 169.89-33L169.89-33Q168.99-32.95 168.09-32.9 167.19-32.85 166.29-32.8L166.29-32.8 166.29-35 190.34-35 190.59-26.25 188.94-26.25Q188.94-29.2 188.04-30.73 187.14-32.25 185.61-32.77 184.09-33.3 182.19-33.25L182.19-33.25 177.89-33.15Q176.04-33.1 175.24-32.45 174.44-31.8 174.26-30.53 174.09-29.25 174.09-27.2L174.09-27.2 174.09-19.2 183.49-19.15 183.14-23.45 185.34-23.45 185.34-12.95ZM216.43-12.95L214.78-12.95Q214.78-15.15 214.18-16.1 213.58-17.05 212.28-17.25 210.98-17.45 208.83-17.35L208.83-17.35 205.18-17.2 205.18-5.75Q205.18-4.4 205.16-3.45 205.13-2.5 205.03-1.85L205.03-1.85 214.58-2Q216.78-2.05 218.38-2.73 219.98-3.4 220.88-5.1 221.78-6.8 221.78-9.75L221.78-9.75 223.48-9.75 223.18 0 197.38 0 197.38-1.65Q199.28-1.75 199.98-2.53 200.68-3.3 200.76-4.67 200.83-6.05 200.83-7.8L200.83-7.8 200.83-29.4Q200.83-30.4 200.88-31.33 200.93-32.25 200.98-33L200.98-33Q200.08-32.95 199.18-32.9 198.28-32.85 197.38-32.8L197.38-32.8 197.38-35 221.43-35 221.68-26.25 220.03-26.25Q220.03-29.2 219.13-30.73 218.23-32.25 216.71-32.77 215.18-33.3 213.28-33.25L213.28-33.25 208.98-33.15Q207.13-33.1 206.33-32.45 205.53-31.8 205.36-30.53 205.18-29.25 205.18-27.2L205.18-27.2 205.18-19.2 214.58-19.15 214.23-23.45 216.43-23.45 216.43-12.95ZM228.48 0L228.48-1.65Q230.38-1.75 231.08-2.53 231.78-3.3 231.86-4.67 231.93-6.05 231.93-7.8L231.93-7.8 231.93-29.4Q231.93-30.4 231.98-31.33 232.03-32.25 232.08-33L232.08-33Q231.18-32.95 230.28-32.9 229.38-32.85 228.48-32.8L228.48-32.8 228.48-35 240.28-35.05Q244.78-35.05 248.53-34 252.28-32.95 255.01-30.78 257.73-28.6 259.21-25.28 260.68-21.95 260.68-17.45L260.68-17.45Q260.68-14 259.48-10.85 258.28-7.7 255.88-5.28 253.48-2.85 249.91-1.43 246.33 0 241.63 0L241.63 0 228.48 0ZM236.28-27.2L236.28-5.9Q236.28-4.55 236.26-3.6 236.23-2.65 236.13-2L236.13-2Q237.48-1.95 238.61-1.93 239.73-1.9 240.51-1.9 241.28-1.9 241.48-1.9L241.48-1.9Q244.73-1.9 247.36-3.1 249.98-4.3 251.86-6.43 253.73-8.55 254.76-11.43 255.78-14.3 255.78-17.65L255.78-17.65Q255.78-22.4 254.06-25.88 252.33-29.35 248.78-31.28 245.23-33.2 239.73-33.2L239.73-33.2Q237.88-33.2 237.16-32.45 236.43-31.7 236.36-30.35 236.28-29 236.28-27.2L236.28-27.2ZM279.83 0L265.23 0 265.23-1.65Q267.13-1.7 267.83-2.53 268.53-3.35 268.6-4.78 268.68-6.2 268.68-8.05L268.68-8.05 268.68-29.05Q268.68-30.4 268.73-31.38 268.78-32.35 268.83-33L268.83-33Q267.93-32.95 267.03-32.9 266.13-32.85 265.23-32.8L265.23-32.8 265.23-35Q267.98-35.05 270.75-35.08 273.53-35.1 276.53-35.1L276.53-35.1Q282.33-35.1 285.6-33.05 288.88-31 288.78-26.55L288.78-26.55Q288.78-24.95 287.85-23.35 286.93-21.75 285.1-20.53 283.28-19.3 280.53-18.8L280.53-18.8 280.53-18.7Q286.03-18.7 288.83-16.18 291.63-13.65 291.63-9.8L291.63-9.8Q291.63-6.75 290.08-4.55 288.53-2.35 285.88-1.18 283.23 0 279.83 0L279.83 0ZM272.88-2L272.88-2Q273.68-1.95 274.8-1.93 275.93-1.9 276.9-1.9 277.88-1.9 278.18-1.9L278.18-1.9Q282.03-1.9 284.4-3.83 286.78-5.75 286.78-9.5L286.78-9.5Q286.78-12.55 285.58-14.25 284.38-15.95 282.43-16.65 280.48-17.35 278.18-17.35L278.18-17.35Q276.68-17.35 275.45-17.32 274.23-17.3 273.03-17.2L273.03-17.2 273.03-5.9Q273.03-4.55 273-3.6 272.98-2.65 272.88-2ZM273.03-28.45L273.03-19.15 276.68-19.25Q279.53-19.3 281.18-20.43 282.83-21.55 283.55-23.25 284.28-24.95 284.23-26.8L284.23-26.8Q284.18-29.5 283-30.9 281.83-32.3 280.13-32.8 278.43-33.3 276.78-33.3L276.78-33.3Q275.13-33.3 274.33-32.85 273.53-32.4 273.28-31.35 273.03-30.3 273.03-28.45L273.03-28.45ZM301.13 0L291.78 0 291.78-1.65Q293.28-1.65 294.08-2.45 294.88-3.25 295.4-4.65 295.93-6.05 296.63-7.9L296.63-7.9 306.93-35.95 308.13-35.95 319.28-7.5Q319.68-6.45 320.18-4.8 320.68-3.15 320.58-2L320.58-2Q321.43-2.05 322.28-2.1 323.13-2.15 323.98-2.2L323.98-2.2 323.98 0 312.53 0 312.53-1.65Q314.43-1.7 315.03-2.5 315.63-3.3 315.48-4.4 315.33-5.5 314.98-6.4L314.98-6.4 313.23-11.1 300.23-10.8 298.48-5.45Q298.13-4.25 297.85-3.55 297.58-2.85 297.23-2L297.23-2Q298.23-2.05 299.2-2.1 300.18-2.15 301.13-2.2L301.13-2.2 301.13 0ZM304.53-23L300.98-12.95 312.53-12.95 308.98-22.5Q308.43-24.05 307.85-25.58 307.28-27.1 306.73-28.65L306.73-28.65 306.63-28.65Q306.13-27.25 305.6-25.85 305.08-24.45 304.53-23L304.53-23ZM355.32-23.85L353.52-23.85Q353.02-28.55 350.25-31.15 347.47-33.75 343.12-33.75L343.12-33.75Q340.47-33.75 338.15-32.63 335.82-31.5 334.07-29.4 332.32-27.3 331.32-24.35 330.32-21.4 330.32-17.7L330.32-17.7Q330.32-13 332.12-9.4 333.92-5.8 336.97-3.8 340.02-1.8 343.72-1.8L343.72-1.8Q346.97-1.8 350.12-3.28 353.27-4.75 355.27-7.55L355.27-7.55 356.57-6.5Q354.42-3.55 351.92-1.95 349.42-0.35 346.95 0.23 344.47 0.8 342.42 0.8L342.42 0.8Q338.67 0.8 335.55-0.55 332.42-1.9 330.15-4.33 327.87-6.75 326.65-9.98 325.42-13.2 325.42-16.95L325.42-16.95Q325.42-20.5 326.5-23.85 327.57-27.2 329.72-29.9 331.87-32.6 335.15-34.2 338.42-35.8 342.77-35.8L342.77-35.8Q345.57-35.8 348.07-35.05 350.57-34.3 352.87-32.75L352.87-32.75 352.62-35.45 355.32-35.45 355.32-23.85ZM372.07 0L360.82 0 360.82-1.65Q362.72-1.75 363.42-2.53 364.12-3.3 364.2-4.67 364.27-6.05 364.27-7.8L364.27-7.8 364.27-29.4Q364.27-30.4 364.32-31.33 364.37-32.25 364.42-33L364.42-33Q363.52-32.95 362.62-32.9 361.72-32.85 360.82-32.8L360.82-32.8 360.82-35 372.07-35 372.07-33.35Q370.22-33.3 369.5-32.5 368.77-31.7 368.7-30.35 368.62-29 368.62-27.2L368.62-27.2 368.62-19 372.37-19 378.62-28.85Q379.27-29.85 380.22-31.05 381.17-32.25 382.17-33.05L382.17-33.05Q381.42-33 380.65-33 379.87-33 379.12-32.95L379.12-32.95 379.12-35 389.87-35 389.87-33.35Q387.77-33.2 386.12-32.65 384.47-32.1 382.97-30.73 381.47-29.35 379.77-26.6L379.77-26.6 374.87-18.8Q376.32-17.95 377.22-16.82 378.12-15.7 379.02-14.55L379.02-14.55 384.62-7.1Q386.52-4.6 387.75-3.43 388.97-2.25 389.95-1.95 390.92-1.65 391.97-1.65L391.97-1.65 391.97 0 385.87 0Q385.37 0 384.55-0.7 383.72-1.4 382.77-2.53 381.82-3.65 380.82-4.9L380.82-4.9 374.82-13Q373.87-14.25 372.92-15.38 371.97-16.5 371.07-17.05L371.07-17.05 368.62-17 368.62-5.95Q368.62-4.6 368.6-3.63 368.57-2.65 368.47-2L368.47-2Q369.37-2.05 370.27-2.1 371.17-2.15 372.07-2.2L372.07-2.2 372.07 0Z" opacity="1" transform="matrix(1,0,0,1,0,0)" fill="#ffffff" class="wordmark-text-0" data-fill-palette-color="primary" id="text-0"></path></svg></g></svg></g></svg></g></svg></g><g transform="matrix(1,0,0,1,177.29986381064052,0)"><svg viewBox="0 0 42.89787237871887 51.626490670778715" height="51.626490670778715" width="42.89787237871887"><g><svg xmlns="http://www.w3.org/2000/svg" xmlns:xlink="http://www.w3.org/1999/xlink" version="1.0" x="0" y="0" viewBox="11 3.128999948501587 78 93.87100219726562" enable-background="new 0 0 100 100" xml:space="preserve" height="51.626490670778715" width="42.89787237871887" class="icon-icon-0" data-fill-palette-color="accent" id="icon-0"><path d="M53.623 79.823l-12.987-12.56c-0.772-0.39-1.7-0.34-2.439 0.103C37.451 67.805 37 68.594 37 69.44V77h-5c-6.168 0-11-4.832-11-11V52v-1V34.129C21 27.992 25.992 23 32.129 23c2.761 0 5-2.239 5-5s-2.239-5-5-5C20.479 13 11 22.479 11 34.129V51v1 14c0 11.579 9.42 21 21 21h5v7.562c0 0.844 0.451 1.635 1.196 2.074C38.594 96.874 39.051 97 39.508 97c0.386 0 0.772-0.088 1.128-0.261l12.987-12.56C54.395 83.459 55 82.923 55 82 55 81.08 54.484 80.579 53.623 79.823z" fill="#ffffff" data-fill-palette-color="accent"></path><path d="M67.871 13H64V5.566c0-0.844-0.493-1.635-1.238-2.074-0.398-0.237-0.876-0.363-1.333-0.363-0.386 0-0.782 0.088-1.138 0.261l-12.993 12.56c-0.772 0.721-1.38 1.257-1.38 2.18 0 0.92 0.515 1.421 1.376 2.177l12.987 12.56c0.772 0.39 1.742 0.34 2.481-0.103C63.507 32.323 64 31.536 64 30.689V23h3.871C74.008 23 79 27.992 79 34.129V48v4 13.871C79 72.008 74.008 77 67.871 77c-2.762 0-5 2.238-5 5s2.238 5 5 5C79.521 87 89 77.521 89 65.871V52v-4V34.129C89 22.479 79.521 13 67.871 13z" fill="#ffffff" data-fill-palette-color="accent"></path></svg></g></svg></g><g></g></svg></g><defs></defs></svg><rect width="395.52" height="117.1819626334609" fill="none" stroke="none" visibility="hidden"></rect></g></svg></g></svg>