<svg xmlns="http://www.w3.org/2000/svg" version="1.1" xmlns:xlink="http://www.w3.org/1999/xlink" xmlns:svgjs="http://svgjs.dev/svgjs" width="128" height="128" viewBox="0 0 128 128"><g transform="matrix(0.8046875,0,0,0.8046875,12.720207060349061,2.753087129934208)"><svg viewBox="0 0 79 95" data-background-color="#dedede" preserveAspectRatio="xMidYMid meet" height="153" width="128" xmlns="http://www.w3.org/2000/svg" xmlns:xlink="http://www.w3.org/1999/xlink"><g id="tight-bounds" transform="matrix(1,0,0,1,-0.16889667735510727,-0.24049999999999727)"><svg viewBox="0 0 79.3377933547102 95.48100000000001" height="95.48100000000001" width="79.3377933547102"><g><svg viewBox="0 0 79.3377933547102 95.48100000000001" height="95.48100000000001" width="79.3377933547102"><g><svg viewBox="0 0 79.3377933547102 95.48100000000001" height="95.48100000000001" width="79.3377933547102"><g id="textblocktransform"><svg viewBox="0 0 79.3377933547102 95.48100000000001" height="95.48100000000001" width="79.3377933547102" id="textblock"><g><svg viewBox="0 0 79.3377933547102 95.48100000000001" height="95.48100000000001" width="79.3377933547102"><g><svg viewBox="0 0 79.3377933547102 95.48100000000001" height="95.48100000000001" width="79.3377933547102"><g><svg xmlns="http://www.w3.org/2000/svg" xmlns:xlink="http://www.w3.org/1999/xlink" version="1.0" x="0" y="0" viewBox="11 3.129 78 93.871" enable-background="new 0 0 100 100" xml:space="preserve" height="95.48100000000001" width="79.3377933547102" class="icon-icon-0" data-fill-palette-color="accent" id="icon-0"><path d="M53.623 79.823l-12.987-12.56c-0.772-0.39-1.7-0.34-2.439 0.103C37.451 67.805 37 68.594 37 69.44V77h-5c-6.168 0-11-4.832-11-11V52v-1V34.129C21 27.992 25.992 23 32.129 23c2.761 0 5-2.239 5-5s-2.239-5-5-5C20.479 13 11 22.479 11 34.129V51v1 14c0 11.579 9.42 21 21 21h5v7.562c0 0.844 0.451 1.635 1.196 2.074C38.594 96.874 39.051 97 39.508 97c0.386 0 0.772-0.088 1.128-0.261l12.987-12.56C54.395 83.459 55 82.923 55 82 55 81.08 54.484 80.579 53.623 79.823z" fill="#374151" data-fill-palette-color="accent"></path><path d="M67.871 13H64V5.566c0-0.844-0.493-1.635-1.238-2.074-0.398-0.237-0.876-0.363-1.333-0.363-0.386 0-0.782 0.088-1.138 0.261l-12.993 12.56c-0.772 0.721-1.38 1.257-1.38 2.18 0 0.92 0.515 1.421 1.376 2.177l12.987 12.56c0.772 0.39 1.742 0.34 2.481-0.103C63.507 32.323 64 31.536 64 30.689V23h3.871C74.008 23 79 27.992 79 34.129V48v4 13.871C79 72.008 74.008 77 67.871 77c-2.762 0-5 2.238-5 5s2.238 5 5 5C79.521 87 89 77.521 89 65.871V52v-4V34.129C89 22.479 79.521 13 67.871 13z" fill="#374151" data-fill-palette-color="accent"></path></svg></g></svg></g></svg></g></svg></g></svg></g><g></g></svg></g><defs></defs></svg><rect width="79.3377933547102" height="95.48100000000001" fill="none" stroke="none" visibility="hidden"></rect></g></svg></g></svg>